<?xml version="1.0" standalone="no"?>
<!DOCTYPE svg PUBLIC "-//W3C//DTD SVG 20010904//EN"
 "http://www.w3.org/TR/2001/REC-SVG-20010904/DTD/svg10.dtd">
<svg version="1.0" xmlns="http://www.w3.org/2000/svg"
 width="2059.000000pt" height="2059.000000pt" viewBox="0 0 2059.000000 2059.000000"
 preserveAspectRatio="xMidYMid meet">
<metadata>
Created by potrace 1.14, written by Peter Selinger 2001-2017
</metadata>
<g transform="translate(0.000000,2059.000000) scale(0.100000,-0.100000)"
fill="#000000" stroke="none">
<path d="M2549 19265 c-2 -1 -26 -6 -54 -9 -27 -3 -57 -7 -65 -9 -8 -2 -33 -7
-55 -11 -115 -22 -311 -105 -433 -184 -254 -164 -456 -424 -550 -707 -26 -79
-36 -116 -57 -225 -3 -14 -8 -74 -11 -135 -3 -60 -9 -113 -13 -116 -3 -4 -37
-9 -76 -13 -194 -17 -425 -91 -568 -183 -23 -15 -52 -33 -65 -40 -69 -37 -237
-195 -312 -293 -19 -25 -38 -46 -42 -48 -5 -2 -8 -8 -8 -14 0 -5 -11 -24 -24
-41 -86 -117 -169 -335 -201 -532 -18 -108 -12 -355 10 -465 86 -421 360 -778
738 -959 211 -101 391 -141 621 -135 142 3 177 7 276 30 36 9 72 17 80 19 126
28 379 160 466 243 14 13 24 6 149 -113 28 -26 199 -186 319 -298 22 -22 70
-67 106 -100 108 -102 455 -427 526 -494 82 -76 288 -269 324 -303 39 -37 288
-270 325 -305 12 -11 55 -52 96 -90 107 -101 334 -314 404 -379 l60 -56 1 -59
1 -60 -1156 4 c-1270 5 -1227 6 -1360 -56 -66 -30 -141 -85 -174 -126 -10 -13
-24 -29 -30 -36 -18 -18 -65 -110 -83 -159 -24 -70 -29 -106 -28 -228 1 -95 6
-128 28 -194 37 -111 79 -181 156 -256 76 -75 141 -110 270 -148 8 -3 552 -6
1208 -7 656 -1 1194 -4 1196 -6 2 -2 7 -31 11 -64 9 -88 26 -208 41 -295 2
-14 8 -52 14 -85 11 -68 14 -82 29 -145 5 -25 17 -76 26 -115 45 -191 128
-459 207 -665 42 -110 50 -129 92 -223 14 -32 26 -60 26 -62 0 -12 157 -325
218 -435 63 -113 88 -155 194 -329 111 -182 396 -571 516 -706 15 -16 37 -42
48 -57 19 -24 105 -122 187 -212 129 -142 429 -432 562 -546 85 -72 163 -138
189 -158 l29 -22 -45 -43 c-25 -23 -72 -66 -104 -96 -33 -30 -91 -84 -129
-120 -89 -83 -179 -166 -325 -301 -136 -126 -147 -137 -236 -220 -63 -59 -251
-233 -330 -306 -47 -43 -235 -218 -270 -250 -49 -47 -361 -337 -445 -414 -15
-14 -54 -50 -86 -80 -32 -30 -112 -104 -177 -165 -66 -60 -134 -123 -152 -140
-17 -16 -58 -54 -90 -84 -33 -30 -91 -84 -129 -120 -101 -94 -303 -282 -350
-325 -22 -20 -43 -36 -46 -36 -3 0 -24 14 -45 31 -162 130 -360 224 -567 271
-133 29 -405 33 -537 6 -436 -88 -791 -362 -975 -750 -97 -206 -135 -383 -129
-613 4 -162 5 -174 29 -280 91 -398 371 -747 738 -920 134 -64 284 -110 395
-122 31 -3 64 -7 72 -9 8 -1 29 -3 45 -3 l30 -1 0 -78 c1 -95 11 -184 31 -271
9 -36 17 -70 18 -76 18 -87 103 -269 184 -390 189 -285 508 -500 844 -569 133
-27 317 -39 403 -25 22 4 63 10 90 13 345 40 725 285 929 598 81 125 171 343
191 460 3 18 10 59 16 90 17 100 13 375 -6 431 -3 7 -6 23 -9 37 -21 127 -86
293 -166 425 -58 97 -58 86 6 146 32 30 87 82 124 115 36 34 81 76 100 94 19
18 87 81 150 140 63 59 138 128 166 153 27 26 68 63 90 84 22 21 82 76 132
123 51 47 123 113 160 147 36 34 68 60 70 58 2 -1 5 -20 8 -41 4 -35 16 -102
45 -244 28 -138 95 -366 158 -537 218 -595 582 -1099 1046 -1450 194 -146 450
-294 655 -378 36 -15 79 -33 95 -40 78 -35 406 -138 483 -151 15 -3 45 -10 67
-16 22 -5 49 -12 60 -14 11 -2 31 -6 45 -9 51 -10 257 -44 305 -50 28 -3 68
-8 90 -11 256 -33 852 -37 1120 -9 22 3 67 7 100 10 33 3 71 7 85 9 14 3 48 7
75 11 28 3 102 15 165 26 63 11 129 23 145 25 17 3 37 7 45 10 8 3 26 8 40 10
62 11 266 69 386 109 737 246 1306 696 1691 1336 52 87 164 306 197 389 15 36
31 74 36 85 51 115 164 496 185 625 3 19 8 46 10 60 12 58 15 77 21 117 14
101 10 100 94 20 80 -76 330 -311 377 -354 15 -14 67 -62 114 -107 47 -45 139
-131 205 -193 65 -61 145 -136 178 -167 l59 -55 -39 -58 c-104 -157 -180 -367
-208 -583 -7 -51 -8 -249 -1 -297 43 -308 138 -525 324 -743 69 -80 73 -83
146 -146 172 -148 381 -250 615 -300 64 -14 129 -19 260 -19 96 0 191 3 210 7
124 23 159 32 237 59 316 108 585 332 751 626 108 191 169 423 171 654 l1 56
55 2 c30 1 64 4 77 6 12 3 40 7 63 10 50 8 153 33 180 44 11 5 43 17 70 26
109 39 294 146 380 220 265 230 416 495 480 845 16 86 13 325 -5 430 -82 468
-376 839 -820 1033 -38 17 -153 55 -185 61 -11 3 -42 9 -68 15 -102 24 -322
33 -434 18 -246 -33 -471 -125 -666 -274 -31 -25 -61 -43 -66 -41 -8 3 -111
97 -340 314 -42 40 -92 86 -111 104 -19 18 -91 85 -160 150 -186 175 -402 378
-490 460 -19 18 -89 83 -155 145 -235 221 -437 411 -479 449 -17 16 -70 66
-117 110 -47 45 -146 137 -219 206 -73 69 -143 134 -154 145 -33 31 -309 289
-322 300 -6 6 -80 75 -163 155 -140 132 -151 145 -134 158 365 266 747 621
1059 982 54 64 113 133 129 154 17 21 50 64 75 96 348 443 674 1019 882 1560
35 90 120 333 134 380 41 145 95 340 98 355 3 11 9 40 15 65 7 25 14 56 16 70
3 14 10 45 15 70 5 25 12 59 15 75 3 17 9 55 14 85 15 82 20 118 27 190 4 36
8 72 10 80 1 8 3 21 3 28 1 9 253 12 1224 12 789 0 1238 4 1266 11 73 16 183
74 232 120 93 88 167 229 184 354 45 327 -119 588 -407 648 -54 12 -192 15
-670 15 -1280 1 -1828 4 -1828 10 -1 4 -2 42 -4 84 -3 75 -2 79 26 102 16 13
81 72 146 132 64 60 146 136 181 169 36 33 77 71 92 85 14 14 74 70 134 125
59 55 124 116 145 135 21 19 64 59 96 89 33 30 117 109 188 175 71 66 143 133
160 148 17 14 64 58 104 96 40 38 110 104 155 145 45 41 98 90 117 109 20 18
87 80 149 138 63 58 131 121 151 140 50 47 227 211 303 281 l61 56 63 -48
c243 -186 605 -288 916 -258 86 8 156 18 179 25 9 3 25 7 36 9 10 2 60 17 110
34 342 114 621 358 784 686 37 73 97 239 105 290 3 17 11 60 18 97 17 89 17
334 0 428 -15 86 -42 196 -54 225 -5 11 -15 36 -22 55 -26 71 -93 197 -150
280 -227 333 -608 552 -1011 583 -26 2 -49 5 -52 8 -2 2 -6 54 -10 115 -6 125
-25 233 -58 339 -35 111 -114 282 -144 312 -8 8 -14 18 -14 23 0 17 -116 158
-187 229 -202 197 -454 325 -738 375 -80 14 -370 15 -425 2 -25 -6 -50 -11
-105 -21 -60 -11 -235 -76 -302 -111 -131 -70 -239 -149 -339 -249 -55 -55
-108 -111 -118 -125 -99 -146 -123 -186 -156 -256 -44 -90 -105 -283 -114
-359 -4 -27 -9 -66 -11 -85 -8 -54 -8 -197 0 -275 21 -218 103 -446 227 -629
l40 -58 -24 -22 c-23 -19 -199 -182 -289 -266 -31 -29 -153 -142 -269 -250
-82 -76 -240 -222 -271 -251 -20 -19 -82 -77 -138 -129 -57 -52 -122 -113
-146 -135 -23 -22 -96 -89 -161 -150 -65 -60 -143 -134 -174 -162 -30 -29 -57
-53 -60 -53 -3 0 -11 10 -19 23 -19 29 -222 309 -236 323 -5 6 -21 26 -35 45
-42 56 -259 308 -335 388 -210 223 -449 443 -675 625 -170 136 -551 400 -670
464 -24 13 -113 64 -155 89 -28 17 -461 231 -510 253 -22 10 -83 34 -135 55
-52 21 -108 43 -125 51 -50 21 -353 121 -465 152 -188 54 -476 119 -605 137
-22 3 -62 10 -90 15 -27 5 -77 12 -110 15 -33 4 -67 8 -75 10 -8 2 -44 7 -80
10 -36 3 -81 8 -100 10 -108 13 -267 19 -525 19 -340 0 -541 -9 -755 -35 -47
-6 -103 -12 -125 -15 -22 -3 -51 -7 -65 -9 -14 -2 -45 -7 -70 -10 -25 -3 -55
-7 -66 -9 -12 -2 -39 -7 -60 -10 -22 -4 -46 -8 -54 -11 -8 -2 -32 -6 -52 -9
-32 -5 -245 -50 -288 -61 -8 -2 -44 -11 -80 -20 -136 -33 -434 -127 -596 -188
-436 -165 -800 -354 -1184 -615 -174 -118 -425 -313 -549 -427 -226 -206 -406
-389 -572 -582 -125 -144 -361 -461 -464 -621 -22 -34 -43 -62 -46 -62 -4 0
-29 21 -56 48 -73 69 -459 432 -503 472 -9 8 -50 47 -91 85 -41 39 -141 133
-224 210 -82 77 -185 174 -230 216 -44 42 -96 90 -115 108 -19 18 -87 82 -150
141 -63 59 -132 123 -152 142 -21 19 -38 38 -38 42 0 4 18 34 40 66 172 253
253 573 225 885 -11 125 -48 280 -86 362 -10 24 -19 46 -19 51 0 10 -64 133
-97 186 -121 193 -318 375 -519 478 -146 76 -260 114 -429 144 -35 6 -331 15
-336 9z"/>
</g>
</svg>
